<?xml version="1.0" encoding="UTF-8"?>
<svg xmlns="http://www.w3.org/2000/svg" xmlns:xlink="http://www.w3.org/1999/xlink" width="16pt" height="16pt" viewBox="0 0 16 16" version="1.1">
<g id="surface1">
<path style=" stroke:none;fill-rule:nonzero;fill:rgb(0%,0%,0%);fill-opacity:1;" d="M 4.699219 14.105469 C 4.078125 14.105469 3.492188 13.863281 3.050781 13.421875 L 2.578125 12.949219 C 1.667969 12.039062 1.667969 10.558594 2.578125 9.648438 L 5.644531 6.585938 C 6.082031 6.144531 6.667969 5.902344 7.292969 5.902344 C 7.914062 5.902344 8.503906 6.144531 8.941406 6.585938 L 9.414062 7.058594 C 9.542969 7.1875 9.542969 7.398438 9.414062 7.527344 C 9.285156 7.660156 9.074219 7.660156 8.941406 7.527344 L 8.472656 7.058594 C 8.15625 6.742188 7.738281 6.570312 7.292969 6.570312 C 6.847656 6.570312 6.429688 6.742188 6.113281 7.058594 L 3.050781 10.121094 C 2.398438 10.769531 2.398438 11.828125 3.050781 12.476562 L 3.519531 12.949219 C 3.835938 13.265625 4.253906 13.4375 4.699219 13.4375 C 5.144531 13.4375 5.5625 13.265625 5.878906 12.949219 L 8 10.828125 C 8.128906 10.699219 8.339844 10.699219 8.472656 10.828125 C 8.601562 10.957031 8.601562 11.167969 8.472656 11.300781 L 6.351562 13.421875 C 5.910156 13.863281 5.324219 14.105469 4.699219 14.105469 Z M 4.699219 14.105469 "/>
<path style=" stroke:none;fill-rule:nonzero;fill:rgb(0%,0%,0%);fill-opacity:1;" d="M 8.707031 10.097656 C 8.085938 10.097656 7.496094 9.855469 7.058594 9.414062 C 6.925781 9.285156 6.925781 9.074219 7.058594 8.941406 C 7.1875 8.8125 7.398438 8.8125 7.527344 8.941406 C 7.84375 9.257812 8.261719 9.429688 8.707031 9.429688 C 9.152344 9.429688 9.570312 9.257812 9.886719 8.941406 L 12.949219 5.878906 C 13.597656 5.230469 13.597656 4.171875 12.949219 3.523438 L 12.480469 3.050781 C 11.828125 2.398438 10.769531 2.398438 10.121094 3.050781 L 8 5.171875 C 7.871094 5.300781 7.660156 5.300781 7.527344 5.171875 C 7.398438 5.042969 7.398438 4.832031 7.527344 4.699219 L 9.648438 2.578125 C 10.558594 1.667969 12.039062 1.667969 12.949219 2.578125 L 13.421875 3.050781 C 14.332031 3.960938 14.332031 5.441406 13.421875 6.351562 L 10.355469 9.414062 C 9.917969 9.855469 9.332031 10.097656 8.707031 10.097656 Z M 8.707031 10.097656 "/>
</g>
</svg>
