<?xml version="1.0" encoding="UTF-8"?>
<svg xmlns="http://www.w3.org/2000/svg" xmlns:xlink="http://www.w3.org/1999/xlink" width="16pt" height="16pt" viewBox="0 0 16 16" version="1.1">
<g id="surface1">
<path style=" stroke:none;fill-rule:nonzero;fill:rgb(0%,0%,0%);fill-opacity:1;" d="M 15.199219 7.878906 C 15.199219 11.753906 12.035156 14.894531 8.128906 14.894531 C 6.890625 14.894531 5.726562 14.578125 4.714844 14.019531 L 0.800781 15.265625 L 2.074219 11.503906 C 1.433594 10.445312 1.0625 9.207031 1.0625 7.878906 C 1.0625 4.003906 4.226562 0.863281 8.128906 0.863281 C 12.035156 0.863281 15.199219 4.003906 15.199219 7.878906 M 8.128906 1.980469 C 4.855469 1.980469 2.1875 4.628906 2.1875 7.878906 C 2.1875 9.167969 2.609375 10.363281 3.320312 11.339844 L 2.578125 13.527344 L 4.863281 12.800781 C 5.800781 13.417969 6.925781 13.777344 8.128906 13.777344 C 11.410156 13.777344 14.074219 11.132812 14.074219 7.878906 C 14.074219 4.628906 11.410156 1.980469 8.128906 1.980469 M 11.699219 9.496094 C 11.65625 9.425781 11.542969 9.378906 11.367188 9.292969 C 11.195312 9.207031 10.34375 8.792969 10.183594 8.734375 C 10.027344 8.675781 9.910156 8.648438 9.792969 8.820312 C 9.679688 8.992188 9.347656 9.378906 9.246094 9.496094 C 9.144531 9.609375 9.042969 9.625 8.871094 9.539062 C 8.699219 9.453125 8.136719 9.269531 7.476562 8.683594 C 6.960938 8.230469 6.613281 7.667969 6.511719 7.496094 C 6.410156 7.324219 6.503906 7.230469 6.589844 7.144531 C 6.667969 7.066406 6.761719 6.941406 6.847656 6.84375 C 6.933594 6.742188 6.964844 6.671875 7.019531 6.558594 C 7.082031 6.441406 7.050781 6.339844 7.007812 6.253906 C 6.964844 6.167969 6.617188 5.324219 6.472656 4.980469 C 6.328125 4.636719 6.183594 4.691406 6.082031 4.691406 C 5.980469 4.691406 5.867188 4.675781 5.75 4.675781 C 5.636719 4.675781 5.449219 4.722656 5.289062 4.894531 C 5.128906 5.066406 4.683594 5.480469 4.683594 6.324219 C 4.683594 7.171875 5.300781 7.988281 5.390625 8.105469 C 5.476562 8.21875 6.589844 10.011719 8.347656 10.699219 C 10.113281 11.386719 10.113281 11.160156 10.429688 11.128906 C 10.746094 11.101562 11.457031 10.714844 11.597656 10.3125 C 11.746094 9.910156 11.746094 9.566406 11.699219 9.496094 "/>
</g>
</svg>
